<svg xmlns="http://www.w3.org/2000/svg" xmlns:xlink="http://www.w3.org/1999/xlink" width="500" zoomAndPan="magnify" viewBox="0 0 375 374.999991" height="500" preserveAspectRatio="xMidYMid meet" version="1.0"><defs><clipPath id="37e84c83cd"><path d="M 24 38 L 367.21875 38 L 367.21875 375 L 24 375 Z M 24 38 " clip-rule="nonzero"/></clipPath><clipPath id="6c1748cdbb"><path d="M 24 143 L 367.21875 143 L 367.21875 375 L 24 375 Z M 24 143 " clip-rule="nonzero"/></clipPath><clipPath id="52959136ae"><path d="M 96 355 L 367.21875 355 L 367.21875 375 L 96 375 Z M 96 355 " clip-rule="nonzero"/></clipPath></defs><g clip-path="url(#37e84c83cd)"><path fill="#576291" d="M 140.101562 160.488281 C 138.199219 159.523438 136.335938 158.441406 134.515625 157.089844 C 121.507812 147.453125 113.960938 131.402344 116.652344 115.308594 C 117.773438 108.585938 121.898438 102.375 122.320312 95.640625 C 122.636719 90.601562 121.390625 85.652344 121.421875 80.632812 C 121.46875 71.796875 124.890625 62.269531 130.261719 55.335938 C 139.007812 44.046875 151.992188 37.488281 166.53125 39.113281 C 171.21875 39.636719 175.933594 40.992188 180.097656 43.234375 C 180.53125 43.46875 184.722656 45.414062 184.238281 46.554688 L 186.34375 47.136719 C 192.914062 45.808594 200.328125 46.402344 206.855469 47.652344 C 209.746094 48.207031 212.996094 48.796875 215.417969 50.550781 C 227.464844 59.277344 226.984375 77.164062 223.875 89.898438 C 223.320312 92.183594 222.496094 94.421875 221.671875 96.648438 C 222.148438 97.671875 222.46875 98.648438 222.53125 99.074219 C 222.71875 100.394531 222.925781 101.757812 222.925781 103.089844 C 222.925781 104.835938 222.839844 106.628906 222.65625 108.433594 C 225.121094 108.234375 227.542969 108.75 229.039062 110.164062 C 233.765625 114.621094 235.523438 122.015625 233.480469 128.152344 C 231.148438 135.15625 224.347656 139.707031 217.308594 140.386719 C 215.136719 140.59375 212.019531 140.070312 209.933594 138.5625 C 209.308594 140.605469 208.671875 142.640625 208.074219 144.695312 C 208.027344 144.855469 207.964844 145.207031 207.898438 145.625 L 208.6875 146.125 L 209.203125 146.496094 L 209.921875 147.089844 L 210.382812 147.515625 L 210.769531 147.910156 L 211.074219 148.238281 L 211.433594 148.65625 L 211.714844 149.003906 L 212.050781 149.445312 L 212.3125 149.808594 L 212.5625 150.179688 L 213.097656 151.03125 L 213.65625 152.023438 L 214.074219 152.832031 L 214.53125 153.792969 C 214.851562 154.496094 215.15625 155.214844 215.449219 155.941406 C 216.425781 157.375 217.574219 158.773438 218.707031 159.734375 C 221.578125 162.171875 225.433594 163.46875 229.222656 164.71875 C 231.496094 165.472656 233.75 166.207031 235.746094 167.164062 C 242.308594 170.300781 248.945312 173.234375 255.542969 176.273438 C 257.941406 177.378906 260.328125 178.5625 262.753906 179.601562 C 263.53125 179.929688 264.316406 180.253906 265.132812 180.480469 C 265.40625 180.558594 266.265625 180.859375 266.253906 180.84375 C 273.050781 183.121094 278.222656 190.917969 281.019531 196.980469 C 287.992188 212.09375 291.65625 229.066406 297.308594 244.746094 C 301.351562 255.960938 304.191406 267.722656 308.949219 278.671875 C 315.214844 293.09375 322.441406 306.859375 329.769531 320.773438 C 332.898438 326.710938 335.210938 332.992188 338.347656 338.925781 C 339.335938 340.796875 341.011719 344.25 339.445312 346.328125 C 339.375 346.425781 339.285156 346.515625 339.179688 346.601562 C 340.144531 348.199219 342.179688 348.925781 342.765625 350.800781 C 343.226562 352.285156 343.019531 354.171875 342.835938 355.675781 C 342.378906 359.390625 341.765625 364.011719 339.390625 367.136719 L 367.144531 379.699219 L 259.625 382.21875 C 259.625 382.21875 257.875 385.195312 250.703125 385.222656 L 250.53125 385.222656 C 243.671875 385.199219 240.292969 384.027344 239.898438 383.882812 L 239.859375 383.867188 L 101.691406 389.992188 L 96.214844 380.070312 L 89.0625 380.3125 L 83.726562 371.886719 C 81.617188 371.972656 79.511719 372.148438 77.382812 372.140625 C 68.953125 372.117188 60.824219 369.296875 55.355469 362.667969 C 55.0625 362.308594 54.816406 361.9375 54.601562 361.550781 C 54.0625 361.507812 53.527344 361.460938 52.988281 361.410156 C 52.136719 361.335938 50.167969 362.066406 50.433594 361.257812 C 45.734375 361.140625 41.003906 358.726562 37.308594 356.0625 C 28.917969 350.011719 23.03125 342.417969 24.230469 331.636719 C 24.832031 326.214844 27.554688 320.824219 29.703125 315.859375 C 32.976562 308.292969 36.316406 300.6875 39.382812 293.03125 C 42.785156 284.527344 44.527344 275.496094 47.578125 266.863281 C 52.792969 252.085938 58.671875 237.796875 62.707031 222.605469 C 64.675781 215.195312 67.976562 208.476562 70.496094 201.277344 C 72.875 194.484375 74.816406 186.371094 81.035156 181.875 C 83.675781 179.964844 88.632812 178.558594 91.945312 178.433594 C 93.699219 178.371094 95.449219 178.976562 97.203125 178.484375 C 103.460938 176.722656 109.140625 173.011719 115.421875 171.117188 C 119.238281 169.96875 123.027344 169.628906 126.597656 168.546875 L 127.308594 168.316406 C 128.125 168.042969 128.929688 167.722656 129.714844 167.339844 C 133.4375 165.523438 136.71875 162.921875 140.101562 160.488281 Z M 325.246094 359.113281 L 325.207031 359.269531 Z M 325.65625 357.40625 L 325.621094 357.554688 Z M 256.082031 280.265625 L 256.066406 280.265625 L 255.910156 281.5 L 255.746094 282.707031 L 255.605469 283.648438 L 255.460938 284.5625 L 255.261719 285.722656 L 255.042969 286.867188 L 254.808594 288.011719 L 254.476562 289.464844 L 254.203125 290.558594 L 253.910156 291.628906 L 253.792969 292.035156 C 253.152344 294.226562 252.367188 296.425781 251.378906 298.738281 C 250.089844 301.746094 246.402344 306.335938 246.21875 309.511719 C 245.9375 314.484375 249.671875 325.609375 251.050781 330.835938 C 252.652344 336.917969 254.058594 343.046875 255.609375 349.140625 C 255.851562 350.09375 256.726562 354.492188 257.152344 356.3125 L 210.410156 356.734375 L 285.746094 356.050781 C 286.609375 355.550781 287.445312 355.074219 288.136719 354.589844 C 288.691406 354.195312 289.210938 353.78125 289.699219 353.347656 C 274.386719 340.207031 270.011719 326.101562 264.414062 305.472656 C 262.648438 298.960938 260.859375 292.71875 258.355469 286.445312 C 257.75 284.933594 257.082031 283.445312 256.425781 281.957031 C 256.269531 281.597656 256.421875 280.984375 256.359375 280.601562 C 256.351562 280.546875 256.335938 280.492188 256.316406 280.449219 L 256.289062 280.398438 L 256.253906 280.351562 L 256.210938 280.316406 L 256.171875 280.296875 L 256.117188 280.273438 Z M 326.070312 355.605469 L 325.929688 356.226562 C 325.976562 356.023438 326.023438 355.816406 326.070312 355.605469 Z M 323.304688 354.113281 L 323.011719 354.800781 L 323.328125 354.058594 Z M 323.730469 353.117188 L 323.613281 353.386719 L 323.78125 353 Z M 323.847656 352.84375 L 324.152344 352.132812 C 324.050781 352.371094 323.949219 352.605469 323.847656 352.84375 Z M 90.984375 309.605469 C 89.007812 314.007812 87.125 318.457031 85.625 322.949219 C 85.273438 324.003906 85.273438 325.160156 85.335938 326.339844 C 85.433594 326.347656 85.515625 326.355469 85.589844 326.359375 C 85.917969 326.371094 86.863281 325.503906 87.195312 325.347656 C 88.542969 324.71875 91.054688 323.410156 92.671875 323.472656 C 95.996094 323.59375 99.617188 324.746094 103.050781 325.792969 L 103.738281 326 Z M 101.902344 286.742188 C 101.691406 286.320312 101.460938 286.09375 101.363281 286.007812 L 101.375 285.996094 C 101.300781 285.957031 101.308594 285.960938 101.363281 286.007812 C 98.976562 289.601562 97.890625 294.25 96.160156 298.179688 C 95.15625 300.464844 94.101562 302.761719 93.046875 305.066406 L 109.277344 325.652344 C 107.917969 318.765625 106.359375 311.875 104.945312 305.101562 C 104.011719 300.648438 103.335938 296.183594 102.816406 291.667969 C 102.726562 290.90625 102.636719 290.144531 102.523438 289.386719 L 102.335938 288.273438 L 102.152344 287.425781 L 101.960938 286.867188 Z M 146.113281 139.171875 C 146.027344 140.203125 145.984375 141.234375 145.976562 142.257812 C 145.949219 146.738281 147.066406 151.242188 148.675781 155.449219 C 148.957031 155.335938 149.242188 155.226562 149.53125 155.125 C 151.066406 154.574219 152.714844 154.105469 154.355469 153.90625 C 152.097656 150.179688 149.59375 146.558594 147.707031 142.703125 C 147.140625 141.546875 146.617188 140.363281 146.113281 139.171875 Z M 218.238281 123.238281 L 218.164062 123.363281 Z M 219.941406 119.753906 L 219.902344 119.851562 Z M 221.5625 114.765625 L 221.558594 114.789062 Z M 220.683594 94.875 L 220.6875 94.882812 Z M 217.75 93.914062 L 217.746094 93.921875 Z M 219.351562 93.546875 L 219.359375 93.554688 Z M 218.40625 93.445312 L 218.398438 93.445312 Z M 219.035156 93.425781 L 219.046875 93.429688 Z M 218.65625 93.390625 L 218.648438 93.394531 Z M 218.824219 93.390625 L 218.832031 93.390625 Z M 152.394531 89.917969 L 152.390625 89.933594 L 152.394531 89.902344 Z M 152.429688 89.761719 L 152.425781 89.773438 Z M 152.824219 88.355469 L 152.820312 88.359375 Z M 153.027344 87.726562 L 153.023438 87.742188 Z M 154.652344 83.996094 L 154.644531 84.011719 L 154.660156 83.980469 Z M 154.882812 83.570312 L 154.871094 83.589844 Z M 155.121094 83.152344 L 155.113281 83.167969 Z M 155.195312 83.027344 L 155.183594 83.042969 L 155.203125 83.015625 Z M 155.355469 82.761719 L 155.347656 82.773438 L 155.367188 82.742188 Z M 155.519531 82.496094 L 155.511719 82.503906 L 155.527344 82.476562 Z M 155.605469 82.355469 L 155.589844 82.382812 Z M 155.765625 82.109375 L 155.753906 82.125 L 155.773438 82.09375 Z M 155.933594 81.855469 L 155.921875 81.871094 L 155.945312 81.839844 Z M 156.105469 81.605469 L 156.097656 81.617188 L 156.117188 81.589844 Z M 156.195312 81.480469 L 156.179688 81.5 Z M 156.363281 81.246094 L 156.351562 81.261719 L 156.367188 81.234375 Z M 156.535156 81.007812 L 156.523438 81.023438 L 156.546875 80.996094 Z M 156.535156 81.007812 " fill-opacity="1" fill-rule="evenodd"/></g><g clip-path="url(#6c1748cdbb)"><path fill="#576291" d="M 72.125 353.542969 L 89.0625 380.3125 L 96.214844 380.066406 L 101.691406 389.988281 L 239.859375 383.863281 C 239.859375 383.863281 243.214844 385.195312 250.53125 385.21875 C 257.851562 385.242188 259.625 382.21875 259.625 382.21875 L 367.144531 379.699219 L 314.332031 355.792969 L 210.410156 356.730469 L 192.675781 356.71875 L 210.410156 356.730469 L 257.152344 356.308594 C 256.726562 354.492188 255.851562 350.09375 255.609375 349.140625 C 254.058594 343.042969 252.652344 336.917969 251.050781 330.835938 C 249.671875 325.609375 245.9375 314.484375 246.21875 309.511719 C 246.402344 306.332031 250.089844 301.746094 251.378906 298.738281 C 254.070312 292.445312 255.25 287.011719 256.066406 280.265625 C 256.636719 280.335938 256.195312 281.425781 256.425781 281.953125 C 257.078125 283.445312 257.75 284.929688 258.355469 286.445312 C 260.859375 292.71875 262.648438 298.960938 264.414062 305.46875 C 270.390625 327.492188 274.96875 342.078125 292.945312 355.984375 L 303.121094 355.894531 C 304.691406 355.730469 305.9375 355.589844 306.304688 355.519531 C 314.289062 353.957031 321.375 350.042969 329.085938 348.152344 C 331.109375 347.660156 338.082031 348.136719 339.445312 346.328125 C 341.011719 344.246094 339.335938 340.792969 338.347656 338.921875 C 335.210938 332.992188 332.898438 326.707031 329.769531 320.769531 C 322.441406 306.855469 315.214844 293.09375 308.949219 278.667969 C 304.191406 267.722656 301.351562 255.957031 297.308594 244.746094 C 291.65625 229.066406 287.992188 212.09375 281.019531 196.980469 C 278.222656 190.917969 273.050781 183.117188 266.253906 180.84375 C 266.265625 180.855469 265.40625 180.554688 265.132812 180.480469 C 264.316406 180.25 263.53125 179.929688 262.753906 179.597656 C 260.328125 178.5625 257.941406 177.378906 255.542969 176.273438 C 248.945312 173.234375 242.308594 170.296875 235.746094 167.160156 C 230.425781 164.617188 223.304688 163.636719 218.707031 159.734375 C 217.574219 158.773438 216.425781 157.375 215.449219 155.9375 C 213.574219 151.289062 211.238281 146.929688 206.5 144.925781 C 204.398438 144.039062 202.03125 143.867188 199.785156 143.644531 C 197.707031 143.441406 195.683594 143.847656 193.707031 144.457031 L 156.980469 147.988281 C 156.9375 148.035156 156.90625 150.597656 156.835938 151.03125 C 156.6875 151.945312 156.523438 152.859375 156.355469 153.769531 C 155.925781 153.761719 155.472656 153.816406 155.34375 153.824219 C 153.375 153.921875 151.375 154.464844 149.53125 155.125 C 142.125 157.777344 136.6875 163.9375 129.714844 167.335938 C 125.28125 169.5 120.371094 169.621094 115.421875 171.117188 C 109.140625 173.011719 103.460938 176.722656 97.207031 178.480469 C 95.449219 178.976562 93.703125 178.367188 91.945312 178.433594 C 88.632812 178.558594 83.675781 179.960938 81.035156 181.871094 C 74.816406 186.367188 72.875 194.480469 70.496094 201.277344 C 67.980469 208.472656 64.675781 215.195312 62.707031 222.605469 C 58.671875 237.796875 52.792969 252.082031 47.578125 266.859375 C 44.527344 275.496094 42.785156 284.527344 39.382812 293.027344 C 36.316406 300.6875 32.976562 308.292969 29.703125 315.859375 C 27.554688 320.824219 24.832031 326.210938 24.230469 331.632812 C 23.03125 342.417969 28.917969 350.011719 37.308594 356.058594 C 41.003906 358.726562 45.734375 361.140625 50.433594 361.253906 C 50.171875 362.066406 52.136719 361.332031 52.988281 361.410156 C 55.800781 361.664062 58.582031 361.90625 61.285156 360.933594 C 64.964844 359.609375 68.761719 356.761719 72.125 353.542969 Z M 113.625 345.609375 C 113.265625 343.128906 111.703125 339.804688 111.390625 337.714844 C 109.789062 326.875 107.1875 315.839844 104.945312 305.097656 C 104.011719 300.648438 103.335938 296.183594 102.816406 291.664062 C 102.65625 290.289062 102.492188 288.902344 102.183594 287.546875 C 101.964844 286.585938 101.507812 286.136719 101.363281 286.007812 L 101.375 285.996094 C 101.300781 285.957031 101.308594 285.960938 101.363281 286.007812 C 98.976562 289.601562 97.890625 294.25 96.160156 298.179688 C 92.589844 306.289062 88.429688 314.542969 85.625 322.949219 C 84.84375 325.292969 85.789062 328.148438 85.332031 330.582031 C 84.378906 335.65625 82.582031 340.734375 79.570312 345.003906 Z M 113.625 345.609375 " fill-opacity="1" fill-rule="evenodd"/></g><g clip-path="url(#52959136ae)"><path fill="#000000" d="M 192.675781 356.71875 L 223.851562 380.800781 L 110.84375 384.902344 L 105.847656 379.738281 L 207.722656 376.246094 L 186.339844 356.714844 L 207.722656 376.246094 L 96.214844 380.066406 L 101.691406 389.988281 L 239.859375 383.863281 C 239.859375 383.863281 243.214844 385.195312 250.53125 385.21875 C 257.851562 385.242188 259.625 382.21875 259.625 382.21875 L 367.144531 379.699219 L 314.332031 355.792969 L 210.410156 356.730469 Z M 192.675781 356.71875 " fill-opacity="0.54" fill-rule="evenodd"/></g><path fill="#ffffff" d="M 66.574219 344.773438 L 89.0625 380.3125 L 207.722656 376.246094 L 175.386719 346.707031 Z M 66.574219 344.773438 " fill-opacity="0.7" fill-rule="evenodd"/><path fill="#ffffff" d="M 186.339844 356.71875 L 207.722656 376.246094 L 105.847656 379.738281 L 110.84375 384.902344 L 223.851562 380.800781 L 192.683594 356.71875 Z M 186.339844 356.71875 " fill-opacity="0.5" fill-rule="evenodd"/><path fill="#ffffff" d="M 168.007812 346.578125 L 175.386719 346.707031 L 186.339844 356.714844 L 185.222656 355.691406 L 186.339844 356.714844 L 210.410156 356.730469 L 222.5625 356.621094 C 221.644531 351.519531 220.640625 346.421875 219.964844 341.253906 C 216.898438 317.753906 220.707031 293.132812 220.707031 269.492188 C 220.59375 269.808594 220.695312 268.816406 220.695312 268.476562 C 220.695312 267.703125 220.738281 266.917969 220.660156 266.148438 C 220.457031 264.121094 220.101562 262.105469 219.886719 260.074219 C 219.238281 253.933594 219.316406 247.734375 218.671875 241.585938 C 217.335938 228.90625 218.101562 216.160156 215.699219 203.5625 C 215.046875 200.128906 215.167969 196.054688 214.082031 192.800781 C 213.816406 192.011719 212.175781 188.882812 212.59375 188.042969 C 212.941406 187.351562 215.328125 186.445312 216.003906 186.085938 C 218.585938 184.707031 221.085938 182.96875 223.597656 181.460938 C 224.015625 181.210938 225.40625 179.886719 225.875 179.78125 C 225.738281 179.476562 225.421875 178.605469 225.234375 178.261719 C 224.640625 177.1875 224.167969 176.082031 223.679688 174.957031 C 222.1875 171.523438 220.699219 168.121094 219.023438 164.765625 C 215.597656 157.921875 214.304688 148.226562 206.5 144.929688 C 204.398438 144.039062 202.03125 143.867188 199.785156 143.644531 C 197.707031 143.441406 195.683594 143.847656 193.707031 144.457031 L 156.980469 147.988281 C 156.9375 148.035156 156.90625 150.597656 156.835938 151.03125 C 156.34375 154.066406 155.695312 157.070312 155.199219 160.109375 C 153.425781 171.0625 152.730469 182.367188 152.730469 193.453125 C 154.046875 192.867188 156.734375 193.882812 157.984375 194.488281 C 157.902344 194.808594 157.9375 196.121094 157.996094 196.648438 C 158.160156 198.128906 158.058594 199.613281 158.128906 201.101562 C 158.347656 205.570312 158.867188 209.960938 159.449219 214.394531 C 161.140625 227.367188 162.128906 240.417969 163.429688 253.429688 C 165.046875 269.617188 165.292969 285.902344 165.691406 302.152344 C 165.929688 311.894531 167.277344 321.589844 167.613281 331.335938 C 167.792969 336.421875 167.867188 341.5 168.007812 346.578125 Z M 157.984375 194.488281 C 158.007812 194.5 158.027344 194.507812 158.046875 194.519531 C 158.066406 194.527344 158.085938 194.539062 158.105469 194.546875 C 158.050781 194.386719 158.011719 194.386719 157.984375 194.488281 Z M 225.875 179.78125 C 225.882812 179.78125 225.894531 179.777344 225.902344 179.777344 C 225.910156 179.773438 225.917969 179.773438 225.925781 179.773438 C 225.957031 179.9375 225.933594 179.914062 225.875 179.78125 Z M 225.875 179.78125 " fill-opacity="0.8" fill-rule="evenodd"/><path fill="#ee8454" d="M 319.171875 331.585938 C 319.394531 331.660156 318.714844 331.453125 318.484375 331.402344 C 318.089844 331.316406 317.679688 331.351562 317.28125 331.402344 C 315.917969 331.570312 314.660156 331.847656 313.351562 332.257812 C 311.21875 332.929688 310.152344 334.1875 308.390625 335.289062 C 306.875 336.234375 305.253906 336.71875 303.6875 337.535156 C 301.140625 338.867188 301.746094 341.828125 300.109375 343.667969 C 299.207031 344.683594 297.355469 345.234375 296.289062 346.246094 C 293.414062 348.96875 291.488281 352.234375 288.136719 354.585938 C 285.820312 356.214844 281.933594 357.726562 280.589844 360.433594 C 277.269531 367.109375 286.890625 365.871094 290.433594 365.265625 C 291.179688 365.140625 292.027344 364.804688 292.707031 364.472656 C 292.828125 364.414062 293.90625 363.765625 293.957031 363.859375 C 294.078125 364.066406 293.613281 365.101562 293.5625 365.328125 C 293.347656 366.300781 293.285156 367.546875 293.507812 368.527344 C 294.390625 372.414062 300.316406 373.410156 303.402344 371.636719 C 303.613281 371.515625 303.660156 372.066406 303.847656 372.226562 C 304.210938 372.535156 304.589844 372.832031 305.003906 373.070312 C 306.199219 373.753906 307.765625 374.578125 309.171875 374.519531 C 313.480469 374.339844 314.753906 371.304688 316.742188 367.914062 C 319.625 362.992188 321.902344 357.371094 324.152344 352.132812 C 324.6875 350.882812 325.355469 349.671875 326.152344 348.578125 C 326.277344 348.414062 326.699219 347.40625 326.925781 347.609375 C 327.902344 348.476562 326.929688 351.777344 326.707031 352.777344 C 325.675781 357.375 324.683594 361.9375 323.140625 366.40625 C 322.554688 368.097656 320.46875 371.65625 323.042969 372.761719 C 325.902344 373.988281 327.339844 370.625 329.929688 370.898438 C 332.617188 371.183594 335.566406 370.492188 337.734375 368.820312 C 341.515625 365.902344 342.289062 360.132812 342.835938 355.675781 C 343.019531 354.171875 343.230469 352.285156 342.765625 350.800781 C 342.15625 348.851562 339.980469 348.140625 339.074219 346.402344 C 337.664062 343.710938 337.828125 340.5625 336.472656 337.882812 C 335.425781 335.824219 333.449219 335.464844 331.511719 334.578125 C 328.203125 333.066406 326.902344 332.070312 322.839844 332.261719 Z M 81.175781 325.832031 C 81.613281 325.621094 84.699219 326.324219 85.589844 326.359375 C 85.917969 326.371094 86.867188 325.503906 87.195312 325.347656 C 88.542969 324.71875 91.054688 323.410156 92.675781 323.472656 C 97.125 323.636719 102.113281 325.648438 106.464844 326.773438 C 107.574219 327.0625 109.203125 327.910156 110.28125 327.949219 C 113.699219 328.074219 117.34375 328.0625 120.351562 330.023438 C 123.464844 332.050781 123.5625 336.285156 125.246094 339.261719 C 126.234375 341.011719 128.066406 342.644531 128.542969 344.675781 C 129.066406 346.933594 126.132812 348.0625 124.515625 347.011719 C 123.921875 348.339844 124.320312 349.820312 124.070312 351.261719 C 123.914062 352.171875 123.132812 353.492188 123.285156 354.421875 C 123.460938 355.503906 123.855469 356.445312 123.589844 357.566406 C 122.792969 360.886719 119.652344 360.773438 117.84375 362.453125 C 117.792969 362.5 118.085938 363.679688 118.058594 363.875 C 117.871094 365.128906 117.542969 366.308594 116.800781 367.363281 C 115.453125 369.28125 113.871094 368.800781 112.007812 369.34375 C 111.59375 369.464844 111.488281 370.507812 111.207031 370.824219 C 109.917969 372.253906 107.351562 373.90625 105.375 373.433594 C 104.996094 373.75 101.617188 373.386719 101.039062 373.367188 C 96.71875 373.203125 92.46875 372.277344 88.171875 371.929688 C 84.539062 371.636719 80.996094 372.152344 77.382812 372.140625 C 68.953125 372.117188 60.824219 369.296875 55.355469 362.664062 C 53.335938 360.214844 53.4375 356.878906 52.09375 354.308594 C 51.152344 352.511719 49.347656 351.320312 48.238281 349.636719 C 49.371094 345.65625 52.46875 342.15625 55.460938 339.378906 C 61.089844 334.15625 67.5 328.867188 74.867188 326.382812 Z M 179.179688 83.195312 C 179.453125 83.109375 178.753906 82.808594 178.613281 82.5625 C 178.253906 81.945312 177.863281 81.308594 177.378906 80.78125 C 176.167969 79.449219 174.425781 77.632812 172.800781 76.851562 C 167.320312 74.226562 160.269531 76.125 156.621094 80.894531 C 154.019531 84.300781 151.871094 89.546875 151.90625 93.886719 C 151.960938 100.0625 154.273438 105.480469 152.800781 111.757812 C 151.085938 119.066406 144.367188 124.300781 142.964844 131.632812 C 142.90625 131.5625 143.339844 132.472656 143.398438 132.585938 C 143.792969 133.382812 144.066406 134.238281 144.40625 135.058594 C 145.46875 137.613281 146.488281 140.214844 147.707031 142.703125 C 151.242188 149.925781 156.941406 156.328125 159.148438 164.160156 C 159.175781 164.167969 159.210938 165 159.234375 165.09375 C 159.574219 166.296875 159.949219 167.480469 160.328125 168.671875 C 161.777344 173.210938 163.195312 177.796875 164.480469 182.359375 C 165.160156 182.296875 165.097656 183.570312 165.480469 184.132812 C 166.871094 186.179688 167.8125 188.464844 169.203125 190.515625 C 173.707031 197.144531 177.75 204.074219 182.253906 210.707031 C 183.3125 212.261719 184.5625 213.65625 185.558594 215.253906 C 185.753906 215.570312 186.3125 216.925781 186.75 217.007812 C 186.730469 217 187.171875 215.816406 187.210938 215.722656 C 187.871094 214.128906 188.488281 212.523438 189.191406 210.953125 C 190.902344 207.140625 192.121094 203.082031 193.921875 199.328125 C 198.953125 188.832031 202.050781 177.449219 206.921875 166.9375 C 207.144531 167.480469 207.003906 165.765625 207.003906 165.179688 C 207 163.746094 206.984375 162.3125 207.027344 160.878906 C 207.140625 156.828125 207.925781 152.175781 207.386719 148.148438 C 207.601562 147.960938 207.914062 145.238281 208.074219 144.695312 C 209.078125 141.246094 210.195312 137.832031 211.160156 134.375 C 211.65625 132.59375 212.128906 130.796875 212.746094 129.050781 C 212.835938 128.796875 213.085938 127.539062 213.292969 127.398438 C 215.085938 126.183594 217.003906 125.347656 218.164062 123.363281 C 221.628906 117.449219 222.929688 109.882812 222.925781 103.089844 C 222.925781 101.757812 222.71875 100.394531 222.53125 99.074219 C 222.34375 97.757812 219.65625 91.132812 217.542969 94.179688 C 215.613281 96.957031 214.742188 102.871094 215.164062 106.027344 C 214.859375 106.25 213.90625 104.824219 213.824219 104.691406 C 212.925781 103.296875 212.015625 101.820312 211.53125 100.222656 C 211.476562 100.039062 211.21875 98.683594 211.035156 98.648438 C 210.773438 98.597656 210.519531 98.828125 210.253906 98.808594 C 209.425781 98.746094 208.546875 98.636719 207.765625 98.355469 C 205.363281 97.503906 203.234375 96.179688 201.476562 94.308594 C 198.664062 91.308594 196.929688 87.277344 195.078125 83.65625 C 194.445312 82.414062 193.972656 80.84375 193.039062 79.78125 C 191.269531 77.773438 187.710938 76.472656 185.335938 78.242188 C 184.113281 79.152344 183.179688 81.074219 182.492188 82.394531 Z M 179.179688 83.195312 " fill-opacity="1" fill-rule="evenodd"/><path fill="#000000" d="M 304.378906 372.652344 C 304.578125 372.804688 304.789062 372.945312 305.003906 373.070312 L 305.21875 373.191406 C 304.5625 369.71875 305.839844 366.199219 306.921875 362.941406 C 308.773438 357.359375 310.75 351.765625 312.46875 346.152344 C 312.925781 344.667969 313.691406 343.1875 314.433594 341.828125 C 314.488281 341.730469 314.582031 341.648438 314.679688 341.566406 C 314.816406 341.453125 314.96875 341.34375 315.09375 341.226562 C 315.339844 340.996094 315.496094 340.734375 315.480469 340.410156 C 315.472656 340.203125 315.296875 340.046875 315.089844 340.054688 C 314.882812 340.0625 314.722656 340.238281 314.734375 340.445312 C 314.734375 340.503906 314.699219 340.550781 314.664062 340.59375 C 314.609375 340.660156 314.542969 340.71875 314.472656 340.773438 C 314.214844 340.988281 313.925781 341.203125 313.777344 341.472656 C 313.011719 342.875 312.222656 344.402344 311.753906 345.933594 C 310.035156 351.542969 308.0625 357.128906 306.210938 362.707031 C 305.160156 365.871094 303.964844 369.273438 304.378906 372.652344 Z M 186.234375 369.871094 C 168.941406 370.167969 151.652344 370.132812 134.351562 370.828125 C 128.613281 371.058594 122.214844 369.964844 116.5625 371.214844 C 116.359375 371.257812 116.234375 371.457031 116.277344 371.660156 C 116.320312 371.859375 116.523438 371.988281 116.722656 371.945312 C 122.335938 370.703125 128.683594 371.804688 134.382812 371.574219 C 151.675781 370.878906 168.960938 370.917969 186.25 370.617188 C 186.457031 370.613281 186.621094 370.445312 186.617188 370.238281 C 186.613281 370.03125 186.441406 369.867188 186.234375 369.871094 Z M 329.046875 370.941406 C 329.3125 370.886719 329.59375 370.867188 329.886719 370.894531 C 331.929688 366.308594 333.257812 361.144531 334.832031 356.636719 C 335.398438 355.019531 335.949219 353.363281 336.414062 351.714844 C 336.488281 351.460938 336.511719 350.910156 336.617188 350.449219 C 336.644531 350.328125 336.675781 350.214844 336.722656 350.121094 C 336.746094 350.078125 336.761719 350.039062 336.792969 350.019531 C 336.972656 349.914062 337.03125 349.6875 336.925781 349.507812 C 336.824219 349.328125 336.59375 349.269531 336.414062 349.375 C 336.214844 349.492188 336.054688 349.726562 335.957031 350.03125 C 335.796875 350.519531 335.777344 351.21875 335.695312 351.507812 C 335.234375 353.144531 334.6875 354.789062 334.125 356.390625 C 332.519531 360.996094 331.175781 366.296875 329.046875 370.941406 Z M 111.714844 369.636719 C 109.34375 368.886719 106.964844 368.046875 104.542969 367.675781 C 102.703125 367.390625 100.644531 367.820312 98.867188 367.386719 C 95.84375 366.652344 92.152344 365.277344 89.476562 364.71875 C 89.273438 364.675781 89.144531 364.476562 89.1875 364.277344 C 89.230469 364.074219 89.425781 363.945312 89.628906 363.984375 C 92.3125 364.546875 96.015625 365.921875 99.046875 366.664062 C 100.800781 367.089844 102.835938 366.65625 104.65625 366.933594 C 107.386719 367.355469 110.0625 368.359375 112.738281 369.171875 C 112.5 369.214844 112.253906 369.269531 112.003906 369.34375 C 111.886719 369.378906 111.792969 369.488281 111.714844 369.636719 Z M 300.289062 343.453125 C 300.234375 343.527344 300.171875 343.597656 300.109375 343.667969 C 299.207031 344.683594 297.355469 345.234375 296.289062 346.246094 C 293.9375 348.472656 292.21875 351.066406 289.835938 353.226562 C 289.957031 352.554688 290.117188 351.957031 290.171875 351.683594 C 291.070312 347.324219 291.882812 343.152344 294.515625 339.429688 C 296.652344 336.402344 299.375 334.535156 302.550781 332.761719 C 313.46875 326.652344 331.878906 325.769531 337.972656 339.222656 C 338.84375 341.144531 339.105469 343.695312 339.136719 345.789062 C 339.140625 346.03125 339.140625 346.277344 339.136719 346.523438 C 339.117188 346.484375 339.09375 346.441406 339.074219 346.402344 C 337.664062 343.710938 337.828125 340.5625 336.472656 337.882812 C 335.425781 335.824219 333.449219 335.464844 331.511719 334.578125 C 328.203125 333.066406 326.902344 332.066406 322.839844 332.257812 L 319.171875 331.585938 C 319.394531 331.660156 318.71875 331.453125 318.488281 331.402344 C 318.089844 331.316406 317.683594 331.351562 317.285156 331.402344 C 315.917969 331.570312 314.660156 331.847656 313.351562 332.257812 C 311.757812 332.757812 310.761719 333.589844 309.621094 334.4375 C 310.59375 334.414062 311.558594 334.472656 312.480469 334.617188 C 313.582031 334.792969 314.730469 334.816406 315.824219 335.027344 C 316.070312 335.078125 316.332031 335.277344 316.570312 335.496094 C 316.65625 335.574219 316.789062 335.679688 316.859375 335.734375 C 317 335.65625 317.179688 335.671875 317.300781 335.789062 C 317.453125 335.933594 317.457031 336.167969 317.316406 336.320312 C 317.214844 336.425781 317.105469 336.480469 316.992188 336.503906 C 316.847656 336.53125 316.6875 336.503906 316.527344 336.417969 C 316.363281 336.328125 316.183594 336.152344 315.996094 335.984375 C 315.890625 335.890625 315.792969 335.785156 315.683594 335.761719 C 314.597656 335.554688 313.457031 335.53125 312.363281 335.359375 C 311.113281 335.160156 309.777344 335.132812 308.453125 335.253906 C 308.429688 335.265625 308.410156 335.277344 308.390625 335.289062 C 306.875 336.238281 305.257812 336.71875 303.6875 337.535156 C 302.25 338.289062 301.816406 339.5625 301.417969 340.863281 C 301.496094 340.949219 301.558594 341.089844 301.546875 341.289062 C 301.527344 341.640625 301.257812 342.410156 301.230469 342.554688 C 300.917969 344.394531 300.304688 346.199219 299.84375 348.011719 C 298.175781 354.535156 295.402344 360.769531 293.371094 367.179688 C 293.367188 366.542969 293.4375 365.890625 293.5625 365.328125 C 293.613281 365.101562 294.078125 364.070312 293.960938 363.863281 C 293.945312 363.832031 293.824219 363.875 293.660156 363.953125 C 295.53125 358.597656 297.714844 353.3125 299.117188 347.828125 C 299.488281 346.371094 299.957031 344.921875 300.289062 343.453125 Z M 123.484375 355.398438 C 123.5 355.464844 123.515625 355.53125 123.527344 355.597656 C 121.707031 353.992188 119.878906 352.417969 118.285156 350.535156 C 116.277344 348.160156 115.089844 345.34375 112.460938 343.546875 C 109.832031 341.753906 105.925781 341.007812 102.972656 339.84375 C 100.996094 339.066406 99.054688 338.261719 97.019531 337.640625 C 96.785156 337.566406 94.78125 336.898438 94.382812 336.777344 L 94.34375 336.765625 C 94.160156 336.726562 94.03125 336.554688 94.050781 336.363281 C 94.058594 336.273438 94.097656 336.1875 94.171875 336.121094 C 94.207031 336.089844 94.289062 336.015625 94.449219 336.027344 C 94.457031 336.027344 94.511719 336.035156 94.601562 336.0625 C 95 336.183594 97.003906 336.851562 97.238281 336.925781 C 99.292969 337.554688 101.25 338.363281 103.246094 339.148438 C 106.246094 340.328125 110.210938 341.105469 112.882812 342.929688 C 115.570312 344.761719 116.804688 347.625 118.859375 350.054688 C 120.171875 351.605469 121.644531 352.945312 123.144531 354.265625 C 123.253906 353.867188 123.289062 353.398438 123.347656 353.042969 C 123.46875 352.335938 123.625 351.625 123.769531 350.917969 C 123.886719 350.339844 124.148438 349.804688 124.1875 349.207031 C 124.226562 348.523438 124.113281 347.5 124.324219 346.90625 L 133.410156 365.148438 C 133.585938 365.054688 133.828125 364.988281 134.113281 364.957031 C 134.855469 364.878906 135.941406 364.980469 136.328125 364.953125 C 139.183594 364.738281 142.019531 364.160156 144.882812 363.90625 C 152.347656 363.242188 159.902344 363.546875 167.386719 363.398438 C 171.976562 363.308594 176.90625 362.511719 181.460938 362.898438 C 181.667969 362.914062 181.820312 363.097656 181.804688 363.300781 C 181.785156 363.507812 181.605469 363.660156 181.398438 363.640625 C 176.867188 363.257812 171.96875 364.058594 167.402344 364.148438 C 159.933594 364.296875 152.394531 363.988281 144.949219 364.652344 C 142.082031 364.90625 139.242188 365.480469 136.382812 365.699219 C 136.050781 365.722656 135.207031 365.648438 134.503906 365.679688 C 134.296875 365.6875 134.101562 365.703125 133.945312 365.738281 C 133.863281 365.757812 133.792969 365.761719 133.761719 365.800781 C 133.753906 365.804688 133.75 365.8125 133.746094 365.816406 L 134.148438 366.628906 L 133.484375 365.929688 C 133.394531 365.933594 133.304688 365.902344 133.234375 365.839844 C 133.136719 365.757812 133.09375 365.640625 133.101562 365.527344 Z M 318.429688 364.832031 C 320.550781 360.722656 322.359375 356.304688 324.152344 352.132812 C 324.6875 350.882812 325.355469 349.671875 326.152344 348.578125 C 326.277344 348.414062 326.699219 347.40625 326.925781 347.609375 C 327.902344 348.476562 326.929688 351.777344 326.707031 352.777344 C 325.878906 356.472656 325.074219 360.144531 323.992188 363.761719 C 322.195312 364.277344 320.328125 364.628906 318.429688 364.832031 Z M 118.074219 362.257812 C 111.316406 359.613281 104.589844 356.824219 97.707031 354.480469 C 95.699219 353.792969 93.53125 353.632812 91.578125 352.941406 C 90.964844 352.726562 90.4375 352.390625 89.902344 352.074219 C 89.421875 351.785156 88.933594 351.515625 88.335938 351.390625 C 88.035156 351.328125 86.757812 351.136719 85.832031 351.136719 C 85.628906 351.136719 85.445312 351.144531 85.296875 351.171875 C 85.253906 351.175781 85.207031 351.191406 85.167969 351.199219 C 85.144531 351.335938 85.046875 351.449219 84.910156 351.492188 C 84.710938 351.550781 84.5 351.441406 84.441406 351.242188 C 84.390625 351.070312 84.417969 350.921875 84.492188 350.796875 C 84.566406 350.671875 84.710938 350.554688 84.933594 350.488281 C 85.1875 350.410156 85.589844 350.378906 86.035156 350.390625 C 86.992188 350.414062 88.1875 350.597656 88.488281 350.660156 C 89.171875 350.800781 89.734375 351.101562 90.285156 351.429688 C 90.78125 351.722656 91.261719 352.039062 91.824219 352.238281 C 93.777344 352.929688 95.941406 353.085938 97.949219 353.773438 C 105.003906 356.179688 111.898438 359.046875 118.824219 361.75 C 118.5625 361.898438 118.308594 362.066406 118.074219 362.257812 Z M 54.519531 361.394531 C 52.050781 360.816406 49.792969 359.6875 47.894531 357.949219 C 46.257812 356.449219 44.5 354.292969 43.769531 352.160156 C 42.328125 347.976562 44.890625 342.914062 47.128906 339.558594 C 52.832031 331.003906 62.847656 324.527344 72.878906 322.519531 C 74.816406 322.132812 76.609375 322.097656 78.554688 321.984375 C 79.386719 321.933594 80.464844 321.746094 81.230469 322.144531 C 82.8125 322.964844 83.875 324.480469 84.59375 326.234375 C 83.328125 326.03125 81.503906 325.671875 81.175781 325.832031 L 74.867188 326.382812 C 67.5 328.867188 61.089844 334.152344 55.460938 339.378906 C 52.46875 342.152344 49.371094 345.65625 48.234375 349.636719 C 49.347656 351.320312 51.152344 352.511719 52.09375 354.308594 C 53.21875 356.457031 53.332031 359.140625 54.519531 361.394531 Z M 197.378906 356.722656 L 198.125 356.722656 C 198.464844 347.214844 199.832031 337.5625 200.363281 328.160156 C 201.359375 310.566406 201.546875 292.597656 201.589844 274.960938 C 201.625 262.203125 203.65625 250.914062 199.960938 238.679688 C 198.492188 233.832031 196.40625 229.3125 193.847656 225.09375 C 193.894531 225.054688 193.953125 224.984375 193.980469 224.867188 C 194.003906 224.785156 193.996094 224.699219 193.960938 224.625 L 193.964844 224.480469 C 194.097656 224.113281 194.253906 223.746094 194.402344 223.382812 C 194.753906 222.515625 195.121094 221.65625 195.46875 220.789062 C 196.597656 217.984375 197.964844 214.945312 200.167969 212.8125 C 201.386719 211.632812 202.554688 210.527344 203.863281 209.492188 C 203.921875 209.445312 203.980469 209.375 204.015625 209.261719 C 204.035156 209.191406 204.046875 209.078125 204.039062 208.929688 C 204.011719 208.390625 203.746094 207.191406 203.730469 207.039062 C 203.589844 205.671875 203.621094 204.261719 203.324219 202.910156 C 203.253906 202.589844 203.074219 202.027344 202.996094 201.511719 C 202.957031 201.246094 202.933594 200.992188 203.011719 200.824219 C 203.519531 199.734375 204.757812 198.625 205.542969 197.730469 C 207.164062 195.882812 208.695312 193.960938 210.421875 192.207031 C 210.808594 191.8125 212.085938 190.761719 212.867188 189.871094 C 212.757812 189.566406 212.667969 189.273438 212.609375 189.011719 C 212.527344 189.117188 212.433594 189.230469 212.328125 189.347656 C 211.558594 190.234375 210.273438 191.289062 209.890625 191.683594 C 208.152344 193.445312 206.609375 195.378906 204.980469 197.238281 C 204.152344 198.179688 202.871094 199.359375 202.332031 200.507812 C 202.203125 200.78125 202.191406 201.1875 202.257812 201.621094 C 202.335938 202.15625 202.523438 202.738281 202.59375 203.070312 C 202.886719 204.394531 202.847656 205.773438 202.988281 207.117188 C 203 207.257812 203.226562 208.667969 203.28125 209 C 202 210.023438 200.847656 211.113281 199.648438 212.277344 C 197.371094 214.476562 195.941406 217.613281 194.773438 220.507812 C 194.425781 221.378906 194.058594 222.238281 193.707031 223.105469 C 193.566406 223.457031 193.414062 223.816406 193.28125 224.175781 C 188.140625 216.015625 181.238281 208.988281 173.671875 202.871094 C 169.753906 199.703125 165.515625 197.152344 161.050781 194.847656 C 159.714844 194.15625 158.351562 193.503906 157.039062 192.777344 C 156.738281 192.613281 155.457031 191.941406 155.242188 191.828125 C 155.203125 191.796875 155.164062 191.773438 155.117188 191.757812 C 154.839844 191.667969 154.710938 191.863281 154.683594 191.898438 C 154.660156 191.933594 154.5 192.242188 154.804688 192.4375 C 154.964844 192.542969 156.34375 193.246094 156.675781 193.429688 C 157.996094 194.160156 159.363281 194.816406 160.707031 195.511719 C 165.125 197.792969 169.324219 200.320312 173.203125 203.453125 C 184.808594 212.832031 194.851562 224.371094 199.242188 238.894531 C 202.917969 251.054688 200.875 262.277344 200.84375 274.960938 C 200.796875 292.582031 200.609375 310.539062 199.617188 328.117188 C 199.085938 337.53125 197.71875 347.195312 197.378906 356.722656 Z M 188.515625 356.714844 L 189.273438 356.714844 C 189.871094 353.59375 190.484375 350.472656 190.839844 347.339844 C 193.355469 325.148438 194.855469 302.574219 194.785156 280.238281 C 194.757812 270.511719 195.34375 260.691406 193.738281 251.082031 C 192.253906 242.195312 189.214844 234.023438 186.523438 225.441406 C 185.273438 221.449219 183.707031 215.558594 180.570312 212.546875 C 180.421875 212.402344 180.183594 212.40625 180.039062 212.554688 C 179.898438 212.703125 179.902344 212.941406 180.050781 213.085938 C 183.105469 216.019531 184.59375 221.777344 185.8125 225.664062 C 188.492188 234.214844 191.519531 242.355469 193 251.207031 C 194.597656 260.777344 194.007812 270.554688 194.039062 280.242188 C 194.105469 302.546875 192.609375 325.09375 190.09375 347.257812 C 189.734375 350.417969 189.117188 353.566406 188.515625 356.714844 Z M 103.738281 326 L 78.160156 293.117188 L 82.125 291.21875 L 111.292969 328.207031 L 107.777344 327.304688 C 109.226562 327.945312 110.679688 328.589844 112.128906 329.207031 C 113.03125 329.589844 114.210938 329.925781 115.261719 330.382812 C 116.007812 330.707031 116.691406 331.097656 117.1875 331.59375 C 118.929688 333.332031 119.585938 336.109375 120.566406 338.289062 C 121.957031 341.390625 123.816406 344.539062 125.867188 347.40625 C 125.488281 347.398438 125.113281 347.316406 124.777344 347.15625 C 122.886719 344.4375 121.1875 341.496094 119.882812 338.597656 C 118.941406 336.492188 118.335938 333.800781 116.660156 332.125 C 116.109375 331.574219 115.292969 331.1875 114.441406 330.855469 C 113.535156 330.503906 112.589844 330.214844 111.832031 329.894531 C 108.167969 328.332031 104.496094 326.59375 100.78125 325.179688 C 100.46875 325.0625 100.160156 324.949219 99.851562 324.832031 C 101.160156 325.207031 102.464844 325.617188 103.738281 326 Z M 301.414062 340.867188 L 301.390625 340.945312 Z M 127.308594 168.316406 C 127.074219 168.394531 126.835938 168.46875 126.59375 168.542969 C 127.277344 171.273438 127.773438 174.070312 128.34375 176.820312 C 130.332031 186.394531 131.6875 196.136719 133.324219 205.777344 C 133.914062 209.234375 134.359375 212.683594 135.15625 216.101562 C 135.265625 216.578125 135.289062 217.757812 135.46875 218.59375 C 135.5625 219.039062 135.714844 219.402344 135.902344 219.589844 C 136 219.6875 136.203125 219.769531 136.488281 219.75 C 137.058594 219.707031 138.191406 219.28125 138.441406 219.238281 C 140.863281 218.78125 143.21875 218.746094 145.675781 218.746094 L 147.527344 218.746094 C 147.503906 218.773438 147.480469 218.800781 147.457031 218.828125 C 146.886719 219.425781 145.890625 220.089844 145.59375 220.324219 C 143.394531 222.058594 141.773438 224.214844 139.820312 226.171875 C 139.613281 226.375 139.011719 227.285156 138.515625 227.816406 L 138.511719 227.820312 C 138.496094 227.796875 138.484375 227.785156 138.476562 227.777344 C 138.390625 227.714844 138.308594 227.695312 138.238281 227.695312 C 138.03125 227.695312 137.863281 227.863281 137.863281 228.070312 C 137.863281 228.148438 137.886719 228.21875 137.925781 228.277344 C 137.898438 228.328125 137.882812 228.386719 137.882812 228.449219 C 137.882812 228.582031 137.953125 228.695312 138.054688 228.761719 C 138.445312 230.429688 139.324219 235.085938 139.496094 235.699219 C 141.96875 244.523438 143.527344 253.738281 145.804688 262.648438 C 148.667969 273.828125 151.667969 285.0625 155.9375 295.808594 C 159.1875 303.976562 162.671875 311.011719 166.371094 318.964844 C 167.023438 320.363281 167.292969 318.917969 166.359375 316.933594 C 162.902344 309.597656 159.636719 303.085938 156.632812 295.53125 C 152.375 284.816406 149.386719 273.613281 146.53125 262.460938 C 144.25 253.546875 142.6875 244.328125 140.214844 235.496094 C 140.046875 234.886719 139.179688 230.289062 138.78125 228.59375 C 138.871094 228.519531 138.964844 228.429688 139.0625 228.328125 C 139.550781 227.804688 140.144531 226.902344 140.347656 226.699219 C 142.28125 224.765625 143.882812 222.628906 146.058594 220.910156 C 146.367188 220.667969 147.40625 219.96875 148 219.339844 C 148.332031 218.992188 148.519531 218.636719 148.519531 218.375 C 148.519531 218.167969 148.355469 218 148.148438 218 L 145.675781 218 C 143.171875 218 140.769531 218.039062 138.304688 218.503906 C 138.089844 218.542969 137.214844 218.867188 136.625 218.976562 C 136.542969 218.992188 136.445312 219 136.386719 219 C 136.359375 218.957031 136.335938 218.902344 136.3125 218.839844 C 136.234375 218.632812 136.179688 218.367188 136.136719 218.082031 C 136.015625 217.285156 135.980469 216.347656 135.882812 215.933594 C 135.089844 212.527344 134.648438 209.09375 134.0625 205.652344 C 132.421875 196.003906 131.066406 186.25 129.078125 176.667969 C 128.5 173.894531 128 171.066406 127.308594 168.316406 Z M 281.410156 317.246094 L 281.289062 317.246094 L 281.300781 317.230469 C 281.398438 317.085938 281.542969 316.933594 281.707031 316.78125 C 282.25 316.28125 282.992188 315.808594 283.210938 315.65625 C 285.320312 314.191406 287.671875 313.316406 290.082031 312.46875 C 290.273438 312.402344 290.378906 312.1875 290.308594 311.992188 C 290.242188 311.796875 290.027344 311.695312 289.832031 311.765625 C 287.359375 312.632812 284.953125 313.539062 282.78125 315.042969 C 282.511719 315.230469 281.488281 315.890625 280.917969 316.511719 C 280.597656 316.867188 280.429688 317.230469 280.457031 317.515625 C 280.476562 317.707031 280.601562 317.875 280.839844 317.957031 C 281.074219 318.035156 281.476562 318.011719 281.640625 317.96875 C 281.824219 317.917969 281.90625 317.804688 281.933594 317.753906 C 281.980469 317.660156 281.984375 317.566406 281.960938 317.476562 C 281.945312 317.414062 281.910156 317.347656 281.84375 317.289062 C 281.71875 317.179688 281.546875 317.167969 281.410156 317.246094 Z M 281.328125 317.832031 L 281.335938 317.839844 L 281.324219 317.828125 Z M 281.316406 317.820312 L 281.324219 317.824219 L 281.3125 317.8125 Z M 85.332031 316.148438 C 85.304688 316.242188 85.308594 316.34375 85.355469 316.433594 C 85.449219 316.617188 85.675781 316.691406 85.859375 316.597656 C 85.933594 316.558594 86.003906 316.496094 86.046875 316.390625 C 86.078125 316.320312 86.101562 316.167969 86.066406 315.960938 C 85.976562 315.382812 85.546875 314.050781 85.527344 313.996094 C 84.820312 311.894531 83.667969 310.195312 81.972656 308.757812 C 76.984375 304.527344 70.414062 302.683594 63.972656 302.527344 C 63.769531 302.519531 63.59375 302.683594 63.589844 302.890625 C 63.585938 303.097656 63.75 303.269531 63.957031 303.273438 C 70.226562 303.425781 76.632812 305.210938 81.488281 309.328125 C 83.074219 310.675781 84.15625 312.269531 84.820312 314.234375 C 84.835938 314.285156 85.273438 315.921875 85.332031 316.148438 Z M 278.746094 315.296875 C 278.96875 314.675781 279.507812 314.007812 280.140625 313.355469 C 281.148438 312.3125 282.390625 311.3125 283.109375 310.59375 C 288.136719 305.570312 294.464844 301.230469 301.449219 299.632812 C 301.652344 299.585938 301.777344 299.382812 301.730469 299.183594 C 301.683594 298.980469 301.484375 298.855469 301.28125 298.902344 C 294.160156 300.535156 287.703125 304.945312 282.578125 310.066406 C 281.859375 310.785156 280.613281 311.789062 279.601562 312.835938 C 278.886719 313.574219 278.292969 314.339844 278.042969 315.046875 C 277.972656 315.238281 278.074219 315.453125 278.269531 315.523438 C 278.460938 315.59375 278.675781 315.492188 278.746094 315.296875 Z M 84.621094 307.015625 C 81.769531 302.71875 79.421875 300.125 74.550781 297.6875 C 74.367188 297.59375 74.140625 297.667969 74.050781 297.855469 C 73.957031 298.039062 74.03125 298.265625 74.214844 298.355469 C 78.949219 300.726562 81.226562 303.253906 83.996094 307.425781 C 84.109375 307.597656 84.34375 307.644531 84.515625 307.53125 C 84.6875 307.417969 84.734375 307.1875 84.621094 307.015625 Z M 230.128906 165.019531 L 229.222656 164.71875 C 230.492188 168.125 231.542969 171.707031 232.253906 175.257812 C 233.921875 183.605469 235.210938 192.175781 236.242188 200.625 C 236.40625 201.988281 237.222656 205.390625 237.390625 207.914062 C 237.457031 208.890625 237.4375 209.730469 237.207031 210.226562 C 237.171875 210.242188 237.054688 210.289062 236.960938 210.3125 C 236.722656 210.367188 236.40625 210.398438 236.042969 210.414062 C 234.253906 210.5 231.410156 210.222656 230.949219 210.171875 C 230.894531 210.164062 229.0625 209.878906 228.695312 209.835938 C 228.589844 209.820312 228.523438 209.832031 228.511719 209.832031 C 228.40625 209.855469 228.347656 209.910156 228.316406 209.945312 C 228.242188 210.023438 228.214844 210.109375 228.214844 210.199219 C 228.214844 210.292969 228.238281 210.398438 228.300781 210.507812 C 228.375 210.636719 228.523438 210.796875 228.722656 210.953125 C 229.226562 211.355469 230.101562 211.820312 230.324219 212.007812 C 232.398438 213.761719 234.90625 214.980469 236.820312 216.867188 C 236.820312 216.984375 236.816406 217.394531 236.777344 217.753906 C 236.617188 219.160156 236.183594 221.394531 236.164062 221.777344 C 235.875 227.285156 235.015625 232.695312 234.039062 238.117188 C 230.988281 255.050781 220.171875 287.761719 220.171875 287.761719 L 219.957031 290.464844 C 219.957031 290.464844 231.714844 255.242188 234.777344 238.25 C 235.757812 232.796875 236.617188 227.355469 236.910156 221.816406 C 236.933594 221.382812 237.496094 218.546875 237.570312 217.277344 C 237.585938 217.011719 237.578125 216.804688 237.550781 216.679688 C 237.523438 216.542969 237.464844 216.453125 237.410156 216.398438 C 235.472656 214.464844 232.917969 213.222656 230.808594 211.433594 C 230.648438 211.300781 230.167969 211.03125 229.71875 210.738281 C 230.28125 210.824219 230.835938 210.910156 230.867188 210.914062 C 231.40625 210.972656 235.148438 211.332031 236.8125 211.097656 C 237.164062 211.046875 237.4375 210.964844 237.601562 210.867188 C 237.730469 210.789062 237.8125 210.695312 237.859375 210.597656 C 238.148438 210.023438 238.21875 209.03125 238.140625 207.863281 C 237.96875 205.324219 237.152344 201.90625 236.984375 200.535156 C 235.949219 192.066406 234.660156 183.476562 232.988281 175.109375 C 232.304688 171.714844 231.320312 168.292969 230.128906 165.019531 Z M 253.691406 292.375 C 254.851562 288.496094 255.535156 284.660156 256.066406 280.265625 C 256.25 280.289062 256.328125 280.417969 256.359375 280.601562 C 257.84375 272.949219 259.558594 265.3125 260.148438 257.640625 C 260.460938 253.558594 259.632812 249.355469 259.3125 245.300781 C 258.621094 236.574219 258.417969 227.824219 257.601562 219.101562 C 256.769531 210.238281 256.820312 198.398438 253.035156 190.273438 C 252.945312 190.085938 252.722656 190.003906 252.539062 190.089844 C 252.351562 190.179688 252.269531 190.402344 252.355469 190.585938 C 256.109375 198.644531 256.03125 210.386719 256.855469 219.171875 C 257.671875 227.890625 257.878906 236.636719 258.566406 245.359375 C 258.882812 249.375 259.714844 253.539062 259.402344 257.582031 C 258.507812 269.203125 255.03125 280.742188 253.691406 292.375 Z M 101.902344 286.742188 C 102.007812 286.957031 102.109375 287.222656 102.183594 287.546875 C 102.320312 288.15625 102.429688 288.769531 102.523438 289.386719 C 103.683594 267.9375 101.835938 244.976562 98.539062 223.980469 C 97.371094 216.523438 96.507812 209.019531 94.191406 201.796875 C 93.40625 199.347656 92.460938 196.9375 91.027344 194.785156 C 90.558594 194.078125 90.003906 193.425781 89.492188 192.75 C 89.222656 192.394531 88.648438 191.398438 88.527344 191.277344 C 88.34375 191.097656 88.15625 191.160156 88.082031 191.195312 C 88.015625 191.230469 87.953125 191.28125 87.910156 191.367188 C 87.894531 191.398438 87.832031 191.535156 87.917969 191.769531 C 87.953125 191.863281 88.019531 191.933594 88.101562 191.976562 C 88.292969 192.289062 88.707031 192.953125 88.898438 193.203125 C 89.398438 193.867188 89.945312 194.507812 90.40625 195.199219 C 91.800781 197.292969 92.714844 199.640625 93.480469 202.027344 C 95.785156 209.210938 96.636719 216.679688 97.800781 224.097656 C 100.953125 244.195312 102.78125 266.097656 101.902344 286.742188 Z M 155.207031 192.425781 C 155.160156 192.457031 155.109375 192.476562 155.054688 192.484375 C 155 192.492188 154.941406 192.488281 154.886719 192.46875 C 155.035156 192.515625 155.140625 192.476562 155.207031 192.425781 Z M 157.402344 159.511719 L 157.429688 159.539062 C 164.324219 166.101562 173.019531 173.082031 183.175781 171.558594 C 187.648438 170.890625 192.625 165.929688 195.699219 163.054688 C 197.023438 161.820312 198.539062 160.773438 199.636719 159.316406 C 200.964844 157.542969 202.242188 155.75 203.488281 153.914062 C 203.574219 153.785156 205.527344 151.5 205.566406 151.617188 C 205.777344 152.25 204.167969 154.5625 203.929688 155.050781 C 202.3125 158.386719 200.882812 161.753906 199.109375 165.023438 C 197.367188 168.226562 195.269531 171.371094 192.816406 174.082031 C 184.164062 183.644531 173.800781 180.050781 164.800781 173.304688 C 163.640625 172.433594 162.046875 171.917969 161.023438 170.863281 C 160.792969 170.132812 160.5625 169.402344 160.328125 168.671875 C 159.949219 167.480469 159.574219 166.296875 159.238281 165.09375 C 159.210938 165 159.175781 164.167969 159.148438 164.160156 C 158.699219 162.554688 158.097656 161.015625 157.402344 159.511719 Z M 154.535156 108.949219 C 154.851562 112.0625 154.800781 115.171875 153.878906 118.277344 C 152.992188 121.261719 151.277344 124.039062 149.566406 126.671875 C 149.117188 127.59375 148.683594 128.527344 148.292969 129.5 C 146.6875 133.511719 146.007812 137.949219 145.976562 142.257812 C 145.941406 147.679688 147.585938 153.136719 149.746094 158.0625 C 150.476562 159.730469 151.074219 161.457031 151.910156 163.078125 C 152.042969 163.332031 153.175781 165.460938 153.0625 165.484375 C 152.710938 165.566406 152.3125 165.324219 151.929688 164.964844 C 152.359375 165.609375 152.714844 166.175781 152.671875 166.210938 C 152.035156 166.738281 148.964844 164.515625 148.382812 164.253906 C 143.511719 162.046875 138.902344 160.339844 134.515625 157.089844 C 121.507812 147.453125 113.960938 131.402344 116.652344 115.308594 C 117.773438 108.585938 121.898438 102.375 122.320312 95.640625 C 122.636719 90.601562 121.390625 85.652344 121.421875 80.632812 C 121.46875 71.796875 124.890625 62.273438 130.261719 55.335938 C 139.007812 44.046875 151.992188 37.488281 166.53125 39.113281 C 171.21875 39.636719 175.933594 40.992188 180.097656 43.234375 C 180.53125 43.46875 184.722656 45.414062 184.238281 46.554688 L 186.34375 47.136719 C 192.914062 45.808594 200.328125 46.402344 206.855469 47.652344 C 209.746094 48.207031 212.996094 48.796875 215.417969 50.550781 C 227.464844 59.277344 226.984375 77.164062 223.875 89.898438 C 223.320312 92.183594 222.496094 94.421875 221.671875 96.648438 C 220.667969 94.492188 218.976562 92.117188 217.542969 94.179688 C 215.613281 96.957031 214.742188 102.871094 215.164062 106.027344 C 214.859375 106.25 213.90625 104.824219 213.824219 104.691406 C 212.925781 103.296875 212.015625 101.820312 211.53125 100.222656 C 211.476562 100.039062 211.21875 98.683594 211.035156 98.648438 C 210.773438 98.597656 210.519531 98.828125 210.253906 98.808594 C 209.425781 98.746094 208.550781 98.636719 207.765625 98.355469 C 205.367188 97.503906 203.234375 96.179688 201.476562 94.308594 C 198.664062 91.308594 196.929688 87.277344 195.082031 83.65625 C 194.445312 82.414062 193.972656 80.84375 193.039062 79.78125 C 191.269531 77.773438 187.710938 76.472656 185.335938 78.242188 C 184.113281 79.152344 183.179688 81.074219 182.492188 82.394531 L 179.179688 83.195312 C 179.453125 83.109375 178.753906 82.808594 178.613281 82.5625 C 178.253906 81.945312 177.863281 81.308594 177.378906 80.78125 C 176.167969 79.449219 174.425781 77.632812 172.796875 76.851562 C 167.320312 74.226562 160.269531 76.125 156.621094 80.894531 C 154.753906 83.34375 153.113281 86.742188 152.355469 90.074219 C 152.292969 91.242188 152.273438 92.414062 152.320312 93.601562 C 152.507812 98.449219 153.871094 103.320312 154.453125 108.191406 C 157.3125 107.320312 160.746094 106.433594 163.683594 106.867188 C 163.886719 106.894531 164.027344 107.085938 164 107.289062 C 163.96875 107.496094 163.777344 107.636719 163.574219 107.605469 C 160.691406 107.179688 157.328125 108.09375 154.535156 108.949219 Z M 178.003906 156.257812 C 180.535156 156.015625 182.789062 155.261719 185.40625 155.261719 C 185.613281 155.261719 185.78125 155.09375 185.78125 154.886719 C 185.78125 154.679688 185.613281 154.511719 185.40625 154.511719 C 182.761719 154.511719 180.488281 155.269531 177.933594 155.511719 C 177.726562 155.53125 177.578125 155.714844 177.597656 155.921875 C 177.617188 156.125 177.800781 156.277344 178.003906 156.257812 Z M 176.71875 129.089844 C 176.804688 129.023438 176.859375 128.914062 176.859375 128.796875 C 176.859375 128.589844 176.691406 128.421875 176.484375 128.421875 C 176.359375 128.421875 176.179688 128.492188 176.0625 128.714844 C 175.933594 128.964844 175.828125 129.59375 175.808594 129.683594 C 175.570312 130.910156 175.296875 132.125 175.085938 133.355469 C 174.789062 135.078125 173.960938 137.21875 173.71875 139.152344 C 173.457031 141.253906 173.859375 143.121094 176.078125 144.105469 C 176.363281 144.234375 176.683594 144.441406 177.011719 144.589844 C 177.28125 144.710938 177.554688 144.789062 177.820312 144.789062 C 178.027344 144.789062 178.195312 144.621094 178.195312 144.414062 C 178.195312 144.207031 178.027344 144.042969 177.820312 144.042969 C 177.605469 144.042969 177.386719 143.945312 177.167969 143.835938 C 176.894531 143.695312 176.625 143.53125 176.382812 143.421875 C 174.523438 142.597656 174.242188 141.007812 174.460938 139.246094 C 174.703125 137.320312 175.527344 135.195312 175.824219 133.484375 C 176.035156 132.257812 176.308594 131.046875 176.542969 129.824219 C 176.554688 129.765625 176.6875 129.222656 176.71875 129.089844 Z M 184.761719 141.476562 C 184.828125 141.492188 184.898438 141.492188 184.96875 141.472656 C 185.164062 141.410156 185.277344 141.203125 185.214844 141.003906 C 185.183594 140.898438 185.117188 140.8125 185.003906 140.757812 C 184.929688 140.722656 184.742188 140.691406 184.492188 140.769531 C 183.867188 140.960938 182.382812 141.742188 182.203125 141.878906 C 182.035156 142 182.003906 142.234375 182.125 142.402344 C 182.25 142.566406 182.484375 142.597656 182.652344 142.476562 C 182.777344 142.378906 183.644531 141.925781 184.28125 141.652344 C 184.457031 141.574219 184.671875 141.503906 184.761719 141.476562 Z M 222.65625 108.433594 C 225.121094 108.234375 227.542969 108.75 229.039062 110.164062 C 233.765625 114.621094 235.523438 122.015625 233.480469 128.152344 C 231.148438 135.15625 224.347656 139.707031 217.308594 140.386719 C 215.136719 140.59375 212.019531 140.070312 209.929688 138.558594 C 210.355469 137.167969 210.773438 135.773438 211.164062 134.375 C 211.660156 132.59375 212.128906 130.796875 212.75 129.050781 C 212.839844 128.796875 213.085938 127.539062 213.292969 127.398438 C 215.085938 126.183594 217.003906 125.347656 218.164062 123.363281 C 220.738281 118.96875 222.117188 113.660156 222.65625 108.433594 Z M 163.421875 122.3125 C 163.324219 121.96875 162.203125 122.109375 162.050781 122.441406 C 161.347656 124.003906 161.363281 128.496094 163.695312 128.730469 C 164.4375 128.804688 164.644531 127.9375 164.722656 127.332031 C 164.894531 125.941406 164.75 124.152344 163.957031 122.964844 Z M 192.894531 118.558594 C 192.738281 118.476562 192.160156 118.160156 191.90625 118.1875 C 191.414062 118.234375 191.09375 118.855469 190.972656 119.269531 C 190.554688 120.6875 190.679688 123.777344 192.1875 124.679688 C 194.523438 126.082031 193.925781 120.820312 193.792969 119.882812 Z M 171.609375 112.292969 C 171.601562 112.253906 171.585938 112.21875 171.5625 112.183594 C 171.453125 112.011719 171.21875 111.960938 171.046875 112.074219 C 170.898438 112.167969 170.820312 112.3125 170.878906 112.519531 C 170.894531 112.585938 170.949219 112.683594 171.042969 112.792969 C 171.226562 112.988281 171.632812 113.300781 171.664062 113.328125 C 172.058594 113.691406 172.4375 114.082031 172.75 114.515625 C 173.960938 116.203125 175.210938 117.996094 175.722656 120.042969 C 175.773438 120.242188 175.976562 120.363281 176.175781 120.3125 C 176.378906 120.261719 176.5 120.058594 176.449219 119.859375 C 175.914062 117.726562 174.621094 115.84375 173.355469 114.082031 C 173.015625 113.605469 172.601562 113.171875 172.167969 112.777344 C 172.140625 112.753906 171.738281 112.402344 171.609375 112.292969 Z M 192.894531 118.558594 L 192.878906 118.535156 C 192.953125 118.585938 192.945312 118.585938 192.894531 118.558594 Z M 171.546875 112.613281 C 171.53125 112.632812 171.519531 112.648438 171.503906 112.660156 C 171.488281 112.675781 171.46875 112.6875 171.453125 112.699219 C 171.488281 112.675781 171.523438 112.648438 171.546875 112.613281 Z M 221 102.640625 C 220.871094 102.59375 220.800781 102.460938 220.730469 102.3125 C 220.613281 102.082031 220.527344 101.796875 220.425781 101.523438 C 220.160156 100.789062 219.777344 100.167969 219.019531 100.167969 C 218.601562 100.167969 218.242188 100.429688 217.972656 100.871094 C 217.5 101.644531 217.285156 102.992188 217.207031 103.4375 C 216.71875 106.1875 216.605469 109.246094 216.988281 112.023438 C 217.015625 112.226562 217.203125 112.367188 217.410156 112.339844 C 217.613281 112.3125 217.757812 112.125 217.726562 111.917969 C 217.355469 109.21875 217.46875 106.246094 217.941406 103.570312 C 218.003906 103.222656 218.144531 102.269531 218.457031 101.5625 C 218.546875 101.359375 218.644531 101.179688 218.769531 101.050781 C 218.84375 100.976562 218.921875 100.914062 219.019531 100.914062 C 219.234375 100.914062 219.363281 101.046875 219.46875 101.210938 C 219.570312 101.375 219.648438 101.574219 219.722656 101.78125 C 219.859375 102.148438 219.980469 102.527344 220.148438 102.8125 C 220.304688 103.070312 220.5 103.253906 220.746094 103.34375 C 220.9375 103.414062 221.152344 103.316406 221.222656 103.121094 C 221.296875 102.929688 221.195312 102.710938 221 102.640625 Z M 187.402344 104.617188 C 189.039062 104.296875 191.070312 103.179688 192.753906 102.6875 C 196.644531 101.546875 201.722656 100.957031 205.722656 101.757812 C 205.925781 101.796875 206.125 101.667969 206.164062 101.464844 C 206.207031 101.261719 206.074219 101.0625 205.871094 101.023438 C 201.757812 100.203125 196.539062 100.800781 192.542969 101.96875 C 190.878906 102.457031 188.875 103.566406 187.257812 103.882812 C 187.058594 103.925781 186.925781 104.121094 186.964844 104.324219 C 187.003906 104.527344 187.203125 104.65625 187.402344 104.617188 Z M 187.402344 104.617188 " fill-opacity="1" fill-rule="evenodd"/></svg>